HIERARCHY
ROOT pelvis
{
    OFFSET 0.0 93.18448638916016 0.0
    CHANNELS 6 Xposition Yposition Zposition Zrotation Yrotation Xrotation

    JOINT left_hip
    {
        OFFSET -5.738739490509033 -4.757423400878906 -1.8327223062515259
        CHANNELS 3 Zrotation Yrotation Xrotation

        JOINT left_knee
        {
            OFFSET -7.406556606292725 -40.59874725341797 -4.1455464363098145
            CHANNELS 3 Zrotation Yrotation Xrotation

            JOINT left_ankle
            {
                OFFSET 2.6218652725219727 -42.52381896972656 -0.04550790786743164
                CHANNELS 3 Zrotation Yrotation Xrotation

                JOINT left_foot
                {
                    OFFSET -6.444037437438965 -4.767150402069092 11.506129264831543
                    CHANNELS 3 Zrotation Yrotation Xrotation

                    End Site
                    {
                        OFFSET 0 0 0
                    }
                }
            }
        }
    }

    JOINT right_hip
    {
        OFFSET 5.551876068115234 -5.530738830566406 -0.7837769389152527
        CHANNELS 3 Zrotation Yrotation Xrotation

        JOINT right_knee
        {
            OFFSET 7.572011947631836 -40.712528228759766 -4.968527793884277
            CHANNELS 3 Zrotation Yrotation Xrotation

            JOINT right_ankle
            {
                OFFSET -0.8201732635498047 -41.351470947265625 -2.2538132667541504
                CHANNELS 3 Zrotation Yrotation Xrotation

                JOINT right_foot
                {
                    OFFSET 6.972066879272461 -4.905763149261475 12.415164947509766
                    CHANNELS 3 Zrotation Yrotation Xrotation

                    End Site
                    {
                        OFFSET 0 0 0
                    }
                }
            }
        }
    }

    JOINT spine1
    {
        OFFSET 0.4939267039299011 16.814956665039062 -4.262204170227051
        CHANNELS 3 Zrotation Yrotation Xrotation

        JOINT spine2
        {
            OFFSET -1.3763231039047241 12.227798461914062 2.9429211616516113
            CHANNELS 3 Zrotation Yrotation Xrotation

            JOINT spine3
            {
                OFFSET -0.10652047395706177 4.577583312988281 0.46459662914276123
                CHANNELS 3 Zrotation Yrotation Xrotation

                JOINT left_collar
                {
                    OFFSET -7.937784671783447 9.276031494140625 0.6260685920715332
                    CHANNELS 3 Zrotation Yrotation Xrotation

                    JOINT left_shoulder
                    {
                        OFFSET -10.871617317199707 7.8042144775390625 -4.460107803344727
                        CHANNELS 3 Zrotation Yrotation Xrotation

                        JOINT left_elbow
                        {
                            OFFSET -26.03056526184082 5.3875274658203125 -1.240987777709961
                            CHANNELS 3 Zrotation Yrotation Xrotation

                            JOINT left_wrist
                            {
                                OFFSET -23.170886993408203 9.445816040039062 -1.8043999671936035
                                CHANNELS 3 Zrotation Yrotation Xrotation

                                End Site
                                {
                                    OFFSET 0 0 0
                                }
                            }
                        }
                    }
                }

                JOINT right_collar
                {
                    OFFSET 7.739258289337158 10.006011962890625 -0.3688669204711914
                    CHANNELS 3 Zrotation Yrotation Xrotation

                    JOINT right_shoulder
                    {
                        OFFSET 9.479679107666016 8.864593505859375 -3.6980648040771484
                        CHANNELS 3 Zrotation Yrotation Xrotation

                        JOINT right_elbow
                        {
                            OFFSET 25.773839950561523 5.8746490478515625 -2.183407783508301
                            CHANNELS 3 Zrotation Yrotation Xrotation

                            JOINT right_wrist
                            {
                                OFFSET 23.99811553955078 14.528549194335938 0.6262912750244141
                                CHANNELS 3 Zrotation Yrotation Xrotation

                                End Site
                                {
                                    OFFSET 0 0 0
                                }
                            }
                        }
                    }
                }

                JOINT neck
                {
                    OFFSET 0.0064005255699157715 20.98553466796875 0.7822718620300293
                    CHANNELS 3 Zrotation Yrotation Xrotation

                    JOINT head
                    {
                        OFFSET -1.4783365726470947 7.358367919921875 9.648038864135742
                        CHANNELS 3 Zrotation Yrotation Xrotation

                        End Site
                        {
                            OFFSET 0 0 0
                        }
                    }
                }
            }
        }
    }

}

MOTION
Frames: 16
Frame Time: 0.050000
0.000000 93.184486 0.000000 0.000000 0.000000 0.000000 0.000000 0.000000 0.000000 0.000000 0.000000 0.000000 0.000000 0.000000 0.000000 0.000000 0.000000 0.000000 0.000000 0.000000 0.000000 0.000000 0.000000 0.000000 0.000000 0.000000 0.000000 0.000000 0.000000 0.000000 0.000000 0.000000 0.000000 0.000000 0.000000 0.000000 0.000000 0.000000 0.000000 0.000000 0.000000 0.000000 0.000000 0.000000 0.000000 0.000000 0.000000 0.000000 0.000000 0.000000 0.000000 0.000000 0.000000 0.000000 0.000000 0.000000 0.000000 0.000000 0.000000 0.000000 0.000000 0.000000 0.000000 0.000000 0.000000 0.000000 0.000000 0.000000 0.000000
0.037226 93.195625 -0.043694 0.000000 0.000000 -0.000000 -0.448235 -0.558344 -0.318121 0.988490 0.815420 1.070551 3.441644 -1.813844 -1.981280 0.000000 0.000000 -0.000000 -0.609067 -0.730799 0.160088 0.821788 0.790430 0.189402 1.925319 -0.631516 1.607932 0.000000 0.000000 -0.000000 -1.430049 1.108312 0.216678 1.804249 -1.783142 0.596196 0.000000 0.000000 -0.000000 0.086072 -0.969692 0.558211 0.129160 -2.727422 0.901387 0.040327 -0.679901 -0.524950 0.000000 0.000000 -0.000000 1.197759 -1.887047 0.411115 -0.245648 -2.096906 -1.294495 -0.733279 -1.349546 -0.161895 0.000000 0.000000 -0.000000 -7.002748 2.245345 0.877804 0.000000 0.000000 -0.000000
0.070800 93.180397 -0.044217 0.000000 0.000000 -0.000000 -0.547560 -0.669211 -0.318465 1.153151 0.973709 1.042309 3.828360 -1.705521 -2.093546 0.000000 0.000000 -0.000000 -0.586870 -0.696966 0.118481 0.874388 0.855540 0.173188 1.861037 -0.735227 1.625888 0.000000 0.000000 -0.000000 -1.469754 1.132506 0.271487 2.035104 -2.003593 0.352962 0.000000 0.000000 -0.000000 0.026179 -0.808395 0.542414 -0.314862 -2.947030 1.375716 0.293659 -0.621162 -0.869221 0.000000 0.000000 -0.000000 1.303904 -2.080051 0.424852 -0.248937 -2.141515 -1.377304 -1.022431 -1.364234 -0.435034 0.000000 0.000000 -0.000000 -7.496439 2.369055 1.057517 0.000000 0.000000 -0.000000
0.106098 93.185555 -0.045763 0.000000 0.000000 -0.000000 -0.594170 -0.730599 -0.373975 1.197363 0.998857 1.061734 4.595177 -1.517911 -2.267435 0.000000 0.000000 -0.000000 -0.552463 -0.653760 0.100263 0.893439 0.882505 0.176961 1.986746 -0.845806 1.760135 0.000000 0.000000 -0.000000 -1.510035 1.156605 0.330009 2.162418 -2.136261 0.017927 0.000000 0.000000 -0.000000 -0.038724 -0.738222 0.602300 -0.466108 -3.193646 1.601712 0.502874 -0.594751 -1.157391 0.000000 0.000000 -0.000000 1.354128 -2.263538 0.349517 -0.308285 -2.069353 -1.525651 -1.214845 -1.301047 -0.579908 0.000000 0.000000 -0.000000 -8.293174 2.606035 1.205821 0.000000 0.000000 -0.000000
0.140230 93.195633 -0.048567 0.000000 0.000000 -0.000000 -0.615445 -0.765789 -0.442039 1.224847 1.005346 1.110410 5.374335 -1.455059 -2.518976 0.000000 0.000000 -0.000000 -0.548076 -0.645782 0.085436 0.876006 0.867302 0.178737 2.341184 -0.893060 1.919256 0.000000 0.000000 -0.000000 -1.581726 1.208268 0.367881 2.260866 -2.241241 -0.164605 0.000000 0.000000 -0.000000 -0.028887 -0.827078 0.650751 -0.372454 -3.304323 1.568421 0.560136 -0.601331 -1.248680 0.000000 0.000000 -0.000000 1.378935 -2.434321 0.241648 -0.414512 -2.057249 -1.749795 -1.361270 -1.166356 -0.601082 0.000000 0.000000 -0.000000 -8.912352 2.776797 1.363916 0.000000 0.000000 -0.000000
0.172185 93.202751 -0.051324 0.000000 0.000000 -0.000000 -0.632568 -0.789969 -0.472513 1.252075 1.022041 1.153413 5.945330 -1.466641 -2.719382 0.000000 0.000000 -0.000000 -0.547088 -0.640270 0.063273 0.865884 0.860298 0.166083 2.709371 -0.933539 2.059168 0.000000 0.000000 -0.000000 -1.627030 1.241414 0.387876 2.305748 -2.288280 -0.179158 0.000000 0.000000 -0.000000 -0.052315 -0.903497 0.747330 -0.300481 -3.339300 1.559044 0.442767 -0.597711 -1.145751 0.000000 0.000000 -0.000000 1.417674 -2.588029 0.173746 -0.495977 -2.112773 -1.941120 -1.424924 -1.027155 -0.501863 0.000000 0.000000 -0.000000 -9.258537 2.848483 1.531221 0.000000 0.000000 -0.000000
0.203934 93.201164 -0.053653 0.000000 0.000000 -0.000000 -0.665279 -0.828702 -0.486592 1.283574 1.046370 1.181500 6.251132 -1.493866 -2.828861 0.000000 0.000000 -0.000000 -0.528892 -0.618960 0.061303 0.851191 0.844470 0.116742 3.033658 -0.965438 2.161294 0.000000 0.000000 -0.000000 -1.617629 1.234397 0.384774 2.270572 -2.252142 -0.094010 0.000000 0.000000 -0.000000 -0.107488 -0.952918 0.878613 -0.263187 -3.345942 1.588939 0.226765 -0.532730 -0.958774 0.000000 0.000000 -0.000000 1.469326 -2.730004 0.139047 -0.535700 -2.184441 -2.071852 -1.408855 -0.927993 -0.330102 0.000000 0.000000 -0.000000 -9.399069 2.845709 1.706215 0.000000 0.000000 -0.000000
0.235515 93.192261 -0.054592 0.000000 0.000000 -0.000000 -0.714031 -0.883676 -0.491292 1.319813 1.076400 1.214185 6.392374 -1.577184 -2.898445 0.000000 0.000000 -0.000000 -0.491305 -0.582337 0.094855 0.835515 0.821960 0.052662 3.322687 -1.040238 2.306204 0.000000 0.000000 -0.000000 -1.590680 1.213039 0.385061 2.174572 -2.159647 -0.005820 0.000000 0.000000 -0.000000 -0.170082 -0.967872 0.997130 -0.287672 -3.397675 1.681415 -0.005278 -0.360484 -0.806281 0.000000 0.000000 -0.000000 1.491069 -2.848201 0.073425 -0.482244 -2.247209 -2.092883 -1.306655 -0.928553 -0.127664 0.000000 0.000000 -0.000000 -9.498306 2.852382 1.799743 0.000000 0.000000 -0.000000
0.267044 93.179222 -0.054777 0.000000 0.000000 -0.000000 -0.761650 -0.937673 -0.497795 1.350213 1.099939 1.258601 6.469523 -1.675355 -2.943192 0.000000 0.000000 -0.000000 -0.459830 -0.554123 0.135643 0.846871 0.826819 0.002071 3.398348 -1.161848 2.426833 0.000000 0.000000 -0.000000 -1.600653 1.216411 0.418578 2.071639 -2.069285 0.017080 0.000000 0.000000 -0.000000 -0.220083 -0.995241 1.103209 -0.260852 -3.479350 1.724652 -0.183787 -0.164847 -0.724673 0.000000 0.000000 -0.000000 1.452780 -2.911348 -0.048269 -0.426064 -2.277270 -2.100647 -1.128167 -1.041796 0.068651 0.000000 0.000000 -0.000000 -9.723518 2.909511 1.869099 0.000000 0.000000 -0.000000
0.296198 93.165176 -0.054869 0.000000 0.000000 -0.000000 -0.808044 -0.993691 -0.524975 1.381219 1.117422 1.363127 6.505783 -1.792450 -2.946140 0.000000 0.000000 -0.000000 -0.438451 -0.534434 0.160782 0.848191 0.824560 -0.016469 3.368855 -1.273344 2.508830 0.000000 0.000000 -0.000000 -1.627499 1.235287 0.435958 2.009519 -2.015678 0.067685 0.000000 0.000000 -0.000000 -0.196924 -1.098098 1.139928 -0.226379 -3.523184 1.737062 -0.248785 0.015527 -0.757207 0.000000 0.000000 -0.000000 1.371556 -2.928827 -0.204824 -0.361160 -2.324171 -2.095707 -0.952672 -1.161802 0.246802 0.000000 0.000000 -0.000000 -9.954767 2.977904 1.907114 0.000000 0.000000 -0.000000
0.319815 93.157806 -0.053849 0.000000 0.000000 -0.000000 -0.855816 -1.056675 -0.585776 1.393546 1.106313 1.503957 6.695984 -1.903828 -2.984465 0.000000 0.000000 -0.000000 -0.424118 -0.513777 0.139507 0.832925 0.815244 0.017069 3.433717 -1.356607 2.610350 0.000000 0.000000 -0.000000 -1.699319 1.286683 0.475432 2.018127 -2.034260 0.038787 0.000000 0.000000 -0.000000 -0.157006 -1.234077 1.172738 -0.119870 -3.568320 1.680005 -0.191322 0.125492 -0.889780 0.000000 0.000000 -0.000000 1.292260 -2.896242 -0.314613 -0.412190 -2.416661 -2.200818 -0.802222 -1.265321 0.404867 0.000000 0.000000 -0.000000 -10.233349 3.045668 2.000748 0.000000 0.000000 -0.000000
0.336710 93.152916 -0.048710 0.000000 0.000000 -0.000000 -0.903710 -1.120734 -0.653195 1.412481 1.100825 1.629380 7.011793 -1.938151 -3.038393 0.000000 0.000000 -0.000000 -0.401298 -0.481324 0.107719 0.806200 0.796893 0.058670 3.498882 -1.441352 2.710445 0.000000 0.000000 -0.000000 -1.790240 1.351025 0.529945 2.052184 -2.079787 -0.023077 0.000000 0.000000 -0.000000 -0.138386 -1.351272 1.228389 -0.027890 -3.557127 1.630941 -0.111399 0.104587 -0.981899 0.000000 0.000000 -0.000000 1.249040 -2.848442 -0.348381 -0.518475 -2.550727 -2.347339 -0.763831 -1.301819 0.472086 0.000000 0.000000 -0.000000 -10.522681 3.101422 2.144410 0.000000 0.000000 -0.000000
0.347423 93.151352 -0.038722 0.000000 0.000000 -0.000000 -0.950361 -1.182438 -0.715455 1.431990 1.098452 1.717797 7.311550 -1.922175 -3.085222 0.000000 0.000000 -0.000000 -0.380090 -0.451568 0.080090 0.774400 0.771430 0.082521 3.687733 -1.525019 2.844442 0.000000 0.000000 -0.000000 -1.895289 1.421394 0.620477 2.122202 -2.164856 -0.178068 0.000000 0.000000 -0.000000 -0.137121 -1.439370 1.292321 0.098478 -3.606218 1.558155 -0.094584 0.068992 -1.004773 0.000000 0.000000 -0.000000 1.244378 -2.821956 -0.333437 -0.673574 -2.691786 -2.544134 -0.796967 -1.244306 0.518877 0.000000 0.000000 -0.000000 -10.849515 3.164474 2.303777 0.000000 0.000000 -0.000000
0.356203 93.156502 -0.023543 0.000000 0.000000 -0.000000 -0.982722 -1.223562 -0.748679 1.444535 1.099090 1.752191 7.703305 -1.868475 -3.170765 0.000000 0.000000 -0.000000 -0.365032 -0.431704 0.066908 0.756738 0.756952 0.090717 3.987478 -1.608283 3.025025 0.000000 0.000000 -0.000000 -1.985464 1.478279 0.722029 2.215066 -2.269130 -0.314207 0.000000 0.000000 -0.000000 -0.158341 -1.492810 1.369068 0.172270 -3.675346 1.543356 -0.090862 0.039708 -1.020171 0.000000 0.000000 -0.000000 1.289955 -2.832513 -0.263115 -0.737893 -2.818379 -2.627552 -0.950667 -1.120419 0.454506 0.000000 0.000000 -0.000000 -11.146696 3.205915 2.497227 0.000000 0.000000 -0.000000
0.367045 93.163208 -0.002945 0.000000 0.000000 -0.000000 -1.000285 -1.243181 -0.749968 1.437673 1.089826 1.775972 8.115474 -1.856175 -3.272625 0.000000 0.000000 -0.000000 -0.356879 -0.425818 0.084902 0.753988 0.750976 0.082696 4.193177 -1.672901 3.169530 0.000000 0.000000 -0.000000 -2.057852 1.529206 0.764950 2.300378 -2.356738 -0.330403 0.000000 0.000000 -0.000000 -0.129580 -1.589674 1.392517 0.157341 -3.697866 1.595737 -0.068964 -0.008954 -1.048219 0.000000 0.000000 -0.000000 1.330698 -2.864437 -0.219911 -0.697161 -2.867490 -2.588859 -1.109800 -1.031138 0.335224 0.000000 0.000000 -0.000000 -11.470712 3.283430 2.601957 0.000000 0.000000 -0.000000
0.380680 93.171249 0.021136 0.000000 0.000000 -0.000000 -1.002546 -1.246076 -0.752436 1.418331 1.068325 1.821296 8.438745 -1.909506 -3.368633 0.000000 0.000000 -0.000000 -0.350999 -0.424272 0.111832 0.752235 0.745001 0.096372 4.262581 -1.692404 3.255287 0.000000 0.000000 -0.000000 -2.094363 1.563202 0.727532 2.355753 -2.404860 -0.246353 0.000000 0.000000 -0.000000 -0.075938 -1.666631 1.358088 0.104471 -3.725122 1.658700 -0.077724 -0.030377 -1.049760 0.000000 0.000000 -0.000000 1.362058 -2.938132 -0.229458 -0.591078 -2.814063 -2.485503 -1.232137 -1.017595 0.191806 0.000000 0.000000 -0.000000 -11.786545 3.398038 2.579852 0.000000 0.000000 -0.000000
